<?xml version="1.0" encoding="UTF-8"?> <svg xmlns="http://www.w3.org/2000/svg" width="754" height="247" viewBox="0 0 754 247" fill="none"><path d="M232.133 152.642C228.513 161.369 224.306 169.842 219.541 178C214.776 186.279 209.474 194.237 203.67 201.824L167.429 180.896V148.107L195.822 131.748L232.133 152.642ZM153.267 139.91V172.664L124.874 156.27L96.5157 172.664V139.91L68.1226 123.516L96.5157 107.122V74.3342L124.874 90.7282L153.267 74.3342V107.122L181.66 123.516L153.267 139.91ZM153.267 230.95C143.899 232.171 134.46 232.765 125.013 232.729H124.63C115.23 232.759 105.839 232.176 96.5157 230.985V189.267L124.874 172.873L153.267 189.267V230.95ZM82.2494 180.896L46.008 201.824C40.3124 194.342 35.1044 186.501 30.4162 178.349C25.6513 170.19 21.4443 161.718 17.8242 152.991L54.0307 132.062L82.4238 148.421L82.2494 180.896ZM17.6149 94.3559C21.2444 85.6726 25.4391 77.2366 30.1721 69.102V68.9276C34.8872 60.7324 40.1183 52.8451 45.8336 45.3132L82.075 66.2418V99.0299L53.6819 115.424L17.6149 94.3559ZM96.5157 16.0132C105.839 14.8215 115.23 14.2389 124.63 14.2691H125.013C134.46 14.2502 143.898 14.8444 153.267 16.048V57.9052L124.874 74.1598L96.5157 57.7657V16.0132ZM167.533 66.1023L203.775 45.1737C209.49 52.7055 214.721 60.5929 219.436 68.7881V68.9625C224.169 77.0971 228.364 85.5331 231.994 94.2163L195.752 115.145L167.359 98.7509L167.533 66.1023ZM249.783 100.634C245.11 87.2038 239.14 74.26 231.959 61.9863V61.8119C224.964 49.4244 216.787 37.743 207.542 26.9309L167.533 49.7431V3.90945C153.519 1.23964 139.28 -0.0686789 125.013 0.00277565H124.63C110.41 -0.058181 96.2181 1.25008 82.2494 3.90945V49.7431L42.6595 26.7565C33.4143 37.5686 25.2373 49.25 18.2428 61.6375V61.8119C10.9066 74.1249 4.79639 87.128 0 100.634L39.7295 123.516L0 146.363C4.6728 159.805 10.6423 172.761 17.8242 185.046C24.874 197.441 33.1096 209.123 42.4153 219.927L82.0052 197.046V243.088C95.9715 245.765 110.165 247.073 124.386 246.995H124.769C139.071 247.091 153.348 245.782 167.394 243.088V197.359L207.158 220.241C216.393 209.421 224.569 197.741 231.575 185.36C238.877 173.02 244.952 159.994 249.713 146.468L210.193 123.516L249.783 100.634Z" fill="#F37331"></path><path d="M332.451 81.3452C332.451 101.227 321.986 112.738 304.546 112.738C287.105 112.738 276.641 101.332 276.641 81.3452V41.0925H291.5V80.6127C291.5 91.949 296.175 98.0532 304.651 98.0532C313.127 98.0532 317.731 92.0885 317.731 80.6127V41.0925H332.521L332.451 81.3452Z" fill="black"></path><path d="M358.298 111.413H343.682V41.0925H356.623L388.295 82.9497V41.0925H402.91V111.413H391.33L358.298 67.1835V111.413Z" fill="black"></path><path d="M414.909 41.0925H430.152V111.413H414.909V41.0925Z" fill="black"></path><path d="M456.418 54.1729H436.884V41.0925H491.543V54.1729H472.01V111.413H456.418V54.1729Z" fill="black"></path><path d="M497.926 41.0925H537.446V54.0683H512.716V68.3695H536.33V81.4498H512.716V98.2276H538.144V111.413H497.926V41.0925Z" fill="black"></path><path d="M547.562 41.0925H569.711C579.129 41.0925 586.733 41.825 594.128 48.4175C597.945 51.964 600.95 56.294 602.936 61.1105C604.923 65.927 605.845 71.1162 605.639 76.3223C605.856 82.0452 604.703 87.7371 602.276 92.9245C599.849 98.1119 596.219 102.645 591.686 106.146C585.024 111.203 578.118 111.517 569.641 111.517H547.492L547.562 41.0925ZM562.351 97.216H573.409C583.524 97.216 590.465 88.4609 590.465 76.2875C590.465 64.114 583.489 55.3589 573.409 55.3589H562.421L562.351 97.216Z" fill="black"></path><path d="M276.92 135.829H291.71V164.013H318.08V135.829H332.73V206.115H318.08V177.617H291.779V206.115H276.92V135.829Z" fill="black"></path><path d="M362.693 135.829H379.749L402.736 206.115H387.074L382.854 192.441H357.426L352.647 206.115H336.916L362.693 135.829ZM379.122 180.372L370.82 153.619L361.646 180.372H379.122Z" fill="black"></path><path d="M416.444 148.875H396.911V135.829H451.569V148.875H432.001V206.115H416.444V148.875Z" fill="black"></path><path d="M485.753 148.875H455.895V135.829H510.902L478.672 192.546H510.623V206.115H453.244L485.753 148.875Z" fill="black"></path><path d="M539.609 135.829H556.666L579.652 206.115H564.026L559.77 192.441H534.342L529.598 206.115H513.832L539.609 135.829ZM555.968 180.372L547.666 153.619L538.528 180.372H555.968Z" fill="black"></path><path d="M583.873 135.829H598.663V192.546H624.091V206.115H583.873V135.829Z" fill="black"></path><path d="M653.181 135.829H670.203L693.19 206.115H677.563L673.308 192.441H647.88L643.171 206.115H627.439L653.181 135.829ZM669.61 180.372L661.309 153.619L652.135 180.372H669.61Z" fill="black"></path><path d="M697.271 135.829H712.061V164.013H738.361V135.829H753.15V206.115H738.361V177.617H712.061V206.115H697.271V135.829Z" fill="black"></path></svg> 